# xmcd
#
# Track frame offsets:
#	150
#	11328
#	23761
#	34974
#	44737
#	56413
#	69002
#	82774
#	93618
#	108505
#	122798
#	132491
#	145395
#	158532
#	180873
#	194510
#	207491
#	220717
#	234466
#	248971
#
# Disc length: 3490 seconds
#
# Revision: 1
# Processed by: cddbd v1.5.1PL2 Copyright (c) Steve Scherf et al.
# Submitted via: audiograbber 1.83.01
#
DISCID=120da014
DTITLE=Billy Stewart - The Collection
DYEAR=1900
DGENRE=Rhythm and blues
TTITLE0=Reap what you sow
TTITLE1=Fat boy
TTITLE2=True fine lovin'
TTITLE3=Strange feeling
TTITLE4=Count me out
TTITLE5=A fat boy can cry
TTITLE6=I do love you
TTITLE7=Keep loving
TTITLE8=Sitting in the park
TTITLE9=How nice it is
TTITLE10=Because I love you
TTITLE11=Moutain of love
TTITLE12=Love me
TTITLE13=Summertime
TTITLE14=Secret love
TTITLE15=Look back and smile
TTITLE16=Everyday I have the bl.ues
TTITLE17=Cross my heart
TTITLE18=Why (do I love you so)
TTITLE19=Tell me the truth
EXTD=
EXTT0=
EXTT1=
EXTT2=
EXTT3=
EXTT4=
EXTT5=
EXTT6=
EXTT7=
EXTT8=
EXTT9=
EXTT10=
EXTT11=
EXTT12=
EXTT13=
EXTT14=
EXTT15=
EXTT16=
EXTT17=
EXTT18=
EXTT19=
PLAYORDER=
